<svg xmlns="http://www.w3.org/2000/svg" version="1.1" xmlns:xlink="http://www.w3.org/1999/xlink" xmlns:svgjs="http://svgjs.dev/svgjs" width="1000" height="1000" viewBox="0 0 1000 1000"><rect width="1000" height="1000" fill="#000000"></rect><g transform="matrix(0.7,0,0,0.7,149.93355168482896,80.6897991888602)"><svg viewBox="0 0 206 247" data-background-color="#ffffff" preserveAspectRatio="xMidYMid meet" height="1199" width="1000" xmlns="http://www.w3.org/2000/svg" xmlns:xlink="http://www.w3.org/1999/xlink"><defs></defs><g id="tight-bounds" transform="matrix(1,0,0,1,0.019554826637346423,-0.1000004761687876)"><svg viewBox="0 0 205.96088947956304 247.2" height="247.2" width="205.96088947956304"><g><svg viewBox="0 0 395.52 474.7141277504616" height="247.2" width="205.96088947956304"><g transform="matrix(1,0,0,1,0,255.74239458951885)"><svg viewBox="0 0 395.52 218.97173316094276" height="218.97173316094276" width="395.52"><g><svg viewBox="0 0 395.52 218.97173316094276" height="218.97173316094276" width="395.52"><g><svg viewBox="0 0 395.52 142.04983164983165" height="142.04983164983165" width="395.52"><g transform="matrix(1,0,0,1,0,0)"><svg width="395.52" viewBox="1.600000023841858 -37 133.63999938964844 48" height="142.04983164983165" data-palette-color="#21bcf4"><path d="M27.15-33.45L24.4-27.9Q22.3-29.05 20.13-29.8 17.95-30.55 16.05-30.55L16.05-30.55Q13.7-30.55 12.35-29.6 11-28.65 11-26.75L11-26.75Q11-25.45 12.03-24.43 13.05-23.4 14.68-22.6 16.3-21.8 18.05-21.15L18.05-21.15Q19.65-20.55 21.23-19.73 22.8-18.9 24.05-17.68 25.3-16.45 26.05-14.63 26.8-12.8 26.8-10.15L26.8-10.15Q26.8-7.35 25.35-4.95 23.9-2.55 21.1-1.07 18.3 0.4 14.2 0.4L14.2 0.4Q12.1 0.4 9.93-0.03 7.75-0.45 5.65-1.33 3.55-2.2 1.6-3.55L1.6-3.55 4.8-9.2Q6.1-8.25 7.63-7.53 9.15-6.8 10.7-6.4 12.25-6 13.55-6L13.55-6Q14.85-6 16.18-6.38 17.5-6.75 18.38-7.65 19.25-8.55 19.25-10.15L19.25-10.15Q19.25-11.25 18.53-12.15 17.8-13.05 16.57-13.8 15.35-14.55 13.9-15.1L13.9-15.1Q12.2-15.75 10.4-16.6 8.6-17.45 7.03-18.68 5.45-19.9 4.48-21.73 3.5-23.55 3.5-26.2L3.5-26.2Q3.5-29.4 4.93-31.75 6.35-34.1 8.95-35.48 11.55-36.85 14.95-37L14.95-37Q19.4-37 22.18-35.95 24.95-34.9 27.15-33.45L27.15-33.45ZM32.75 0L32.75-21.85 39.75-21.85 39.75 0 32.75 0ZM32.6-29.6L32.6-29.6Q32.6-31.15 33.82-32.15 35.05-33.15 36.45-33.15L36.45-33.15Q37.85-33.15 39.02-32.15 40.2-31.15 40.2-29.6L40.2-29.6Q40.2-28.05 39.02-27.08 37.85-26.1 36.45-26.1L36.45-26.1Q35.05-26.1 33.82-27.08 32.6-28.05 32.6-29.6ZM58.25 11L58.25 11Q55.3 11 53.27 10.3 51.25 9.6 49.85 8.6 48.45 7.6 47.35 6.7L47.35 6.7 51.45 1.9Q52.6 2.95 54.12 3.93 55.65 4.9 58.15 4.9L58.15 4.9Q59.8 4.9 61.22 4.33 62.65 3.75 63.52 2.65 64.4 1.55 64.4-0.1L64.4-0.1 64.4-4.9 64.65-3.65Q63.85-1.95 61.75-0.68 59.65 0.6 56.25 0.6L56.25 0.6Q53.3 0.6 50.77-0.93 48.25-2.45 46.75-5.08 45.25-7.7 45.25-11.05L45.25-11.05Q45.25-14.5 46.85-17.18 48.45-19.85 51-21.4 53.55-22.95 56.4-22.95L56.4-22.95Q59.25-22.95 61.32-22.13 63.4-21.3 64.45-20.1L64.45-20.1 64.2-19.45 64.95-21.85 71.4-21.85 71.4 0Q71.4 3.2 69.59 5.68 67.8 8.15 64.82 9.58 61.85 11 58.25 11ZM52.3-11.25L52.3-11.25Q52.3-9.5 53.1-8.1 53.9-6.7 55.27-5.9 56.65-5.1 58.35-5.1L58.35-5.1Q59.8-5.1 60.92-5.48 62.05-5.85 62.92-6.58 63.8-7.3 64.4-8.4L64.4-8.4 64.4-13.75Q63.95-14.85 63.05-15.63 62.15-16.4 60.97-16.82 59.8-17.25 58.35-17.25L58.35-17.25Q56.65-17.25 55.27-16.48 53.9-15.7 53.1-14.35 52.3-13 52.3-11.25ZM78.59-21.85L84.94-21.85 85.49-17.95 85.39-18.3Q86.54-20.35 88.64-21.63 90.74-22.9 93.79-22.9L93.79-22.9Q96.89-22.9 98.97-21.08 101.04-19.25 101.09-16.35L101.09-16.35 101.09 0 94.09 0 94.09-13.75Q94.04-15.2 93.32-16.07 92.59-16.95 90.89-16.95L90.89-16.95Q89.29-16.95 88.09-15.9 86.89-14.85 86.24-13.05 85.59-11.25 85.59-8.9L85.59-8.9 85.59 0 78.59 0 78.59-21.85ZM109.44 0L109.44-36.8 134.54-36.8 134.54-29.8 116.69-29.8 116.69-21.95 132.49-21.95 132.49-14.95 116.69-14.95 116.69-7 135.24-7 135.24 0 109.44 0Z" opacity="1" transform="matrix(1,0,0,1,0,0)" fill="#ffffff" class="undefined-text-0" data-fill-palette-color="primary" id="text-0"></path></svg></g></svg></g><g transform="matrix(1,0,0,1,0,175.5843877063973)"><svg viewBox="0 0 395.52 43.38734545454546" height="43.38734545454546" width="395.52"><g transform="matrix(1,0,0,1,0,0)"><svg width="395.52" viewBox="2.299999952316284 -35.599998474121094 329.9800109863281 36.19999694824219" height="43.38734545454546" data-palette-color="#77d4fc"><path d="M18.75 0.6L18.75 0.6Q13.8 0.6 10.1-1.65 6.4-3.9 4.35-7.95 2.3-12 2.3-17.4L2.3-17.4Q2.3-22.75 4.4-26.85 6.5-30.95 10.38-33.27 14.25-35.6 19.55-35.6L19.55-35.6Q25.55-35.6 29.55-32.7 33.55-29.8 34.75-24.7L34.75-24.7 28.75-24.7Q27.95-27.5 25.6-29.1 23.25-30.7 19.55-30.7L19.55-30.7Q14.05-30.7 10.9-27.15 7.75-23.6 7.75-17.35L7.75-17.35Q7.75-11.1 10.85-7.6 13.95-4.1 19.1-4.1L19.1-4.1Q24.3-4.1 26.93-7.05 29.55-10 30-14.9L30-14.9 20.5-14.9 20.5-19 35.35-19 35.35 0 30.5 0 30.05-5.15Q28.3-2.4 25.65-0.9 23 0.6 18.75 0.6ZM45.15 0L39.55 0 52.45-35 58.25-35 71.05 0 65.45 0 62.45-8.55 48.15-8.55 45.15 0ZM55.3-28.7L49.65-12.75 60.95-12.75 55.3-28.7ZM81.25 0L75.95 0 75.95-35 82.2-35 94.05-11.7 105.85-35 112.1-35 112.1 0 106.8 0 106.8-25.85 96.1-5 92-5 81.25-25.8 81.25 0ZM141.44 0L119.19 0 119.19-35 141.44-35 141.44-30.7 124.49-30.7 124.49-19.8 139.94-19.8 139.94-15.6 124.49-15.6 124.49-4.3 141.44-4.3 141.44 0ZM182.59 0L160.34 0 160.34-35 182.59-35 182.59-30.7 165.64-30.7 165.64-19.8 181.09-19.8 181.09-15.6 165.64-15.6 165.64-4.3 182.59-4.3 182.59 0ZM194.19 0L188.89 0 188.89-35 194.19-35 211.74-8.65 211.74-35 217.04-35 217.04 0 211.74 0 194.19-26.35 194.19 0ZM239.33 0.6L239.33 0.6Q234.38 0.6 230.68-1.65 226.98-3.9 224.93-7.95 222.88-12 222.88-17.4L222.88-17.4Q222.88-22.75 224.98-26.85 227.08-30.95 230.96-33.27 234.83-35.6 240.13-35.6L240.13-35.6Q246.13-35.6 250.13-32.7 254.13-29.8 255.33-24.7L255.33-24.7 249.33-24.7Q248.53-27.5 246.18-29.1 243.83-30.7 240.13-30.7L240.13-30.7Q234.63-30.7 231.48-27.15 228.33-23.6 228.33-17.35L228.33-17.35Q228.33-11.1 231.43-7.6 234.53-4.1 239.68-4.1L239.68-4.1Q244.88-4.1 247.51-7.05 250.13-10 250.58-14.9L250.58-14.9 241.08-14.9 241.08-19 255.93-19 255.93 0 251.08 0 250.63-5.15Q248.88-2.4 246.23-0.9 243.58 0.6 239.33 0.6ZM267.68 0L262.38 0 262.38-35 267.68-35 267.68 0ZM280.08 0L274.78 0 274.78-35 280.08-35 297.63-8.65 297.63-35 302.93-35 302.93 0 297.63 0 280.08-26.35 280.08 0ZM332.28 0L310.03 0 310.03-35 332.28-35 332.28-30.7 315.33-30.7 315.33-19.8 330.78-19.8 330.78-15.6 315.33-15.6 315.33-4.3 332.28-4.3 332.28 0Z" opacity="1" transform="matrix(1,0,0,1,0,0)" fill="#ffffff" class="undefined-text-1" data-fill-palette-color="secondary" id="text-1"></path></svg></g></svg></g></svg></g></svg></g><g transform="matrix(1,0,0,1,75.54432,0)"><svg viewBox="0 0 244.43135999999998 222.2078385329532" height="222.2078385329532" width="244.43135999999998"><g><svg xmlns="http://www.w3.org/2000/svg" xmlns:xlink="http://www.w3.org/1999/xlink" version="1.1" x="0" y="0" viewBox="4.39900016784668 8 89.10099792480469 81" enable-background="new 0 0 100 100" xml:space="preserve" height="222.2078385329532" width="244.43135999999998" class="icon-icon-0" data-fill-palette-color="accent" id="icon-0"><g fill="#77d4fc" data-fill-palette-color="accent"><polygon points="4.399,89 93.5,89 93.5,16.1 53,16.1 53,24.2 85.399,24.2 85.399,80.899 12.5,80.899 12.5,56.601 4.399,56.601  " fill="#ffffff" data-fill-palette-color="accent"></polygon><polygon points="44.901,24.2 28.7,24.2 28.7,8 20.6,8 20.6,24.2 4.401,24.2 4.401,32.299 20.6,32.299 20.6,48.5 28.7,48.5    28.7,32.299 44.901,32.299  " fill="#ffffff" data-fill-palette-color="accent"></polygon></g></svg></g></svg></g><g></g></svg></g></svg><rect width="205.96088947956304" height="247.2" fill="none" stroke="none" visibility="hidden"></rect></g></svg></g></svg>